<svg width="14" height="16" viewBox="0 0 14 16" fill="none" xmlns="http://www.w3.org/2000/svg">
<path d="M13.9386 0.275252C13.9008 0.199236 13.8251 0.199237 13.7495 0.199237C6.37612 2.40369 0.326156 0.237245 0.288343 0.199237C0.212719 0.161229 0.137094 0.199236 0.0992821 0.275252C0.0614698 0.351267 0.0614698 0.427282 0.0992821 0.503298C0.174907 0.579314 6.33831 10.0053 6.86768 15.0983C6.86768 15.1743 6.9433 15.2503 7.05674 15.2503C7.13236 15.2503 7.2458 15.1743 7.2458 15.0983C7.69955 9.96725 13.863 0.579314 13.9386 0.503298C13.9764 0.427282 13.9764 0.351267 13.9386 0.275252Z" fill="url(#paint0_linear)"/>
<defs>
<linearGradient id="paint0_linear" x1="6.99685" y1="4.45266" x2="6.99685" y2="18.9961" gradientUnits="userSpaceOnUse">
<stop stop-color="#6ADBA7"/>
<stop offset="0.9868" stop-color="#3DB3C1"/>
</linearGradient>
</defs>
</svg>
