<svg width="46" height="24" viewBox="0 0 46 24" fill="none" xmlns="http://www.w3.org/2000/svg">
<path d="M17.763 23.0328C17.763 23.0328 23.6995 24.6671 29.2201 22.7287C37.5766 19.7641 43.3997 13.5308 45.7819 10.6422L45.2903 9.76802C44.7231 8.77982 43.4753 8.43775 42.4922 9.00786L30.5057 15.9253V2.05242C30.5057 0.912189 29.5982 0 28.4639 0H17.5361C16.4017 0 15.4942 0.912189 15.4942 2.05242V15.9253L3.50775 9.00786C2.52463 8.43775 1.27682 8.77982 0.709638 9.76802L0.218079 10.6422C2.67588 13.6828 8.83928 20.2962 17.763 23.0328ZM22.9811 12.7706C25.212 12.7706 27.027 14.595 27.027 16.8375C27.027 19.0799 25.212 20.9043 22.9811 20.9043C20.7502 20.9043 18.9352 19.0799 18.9352 16.8375C18.9352 14.595 20.7502 12.7706 22.9811 12.7706Z" fill="#219653"/>
</svg>
